<svg width="20" height="16" viewBox="0 0 20 16" fill="none" xmlns="http://www.w3.org/2000/svg">
<path fill-rule="evenodd" clip-rule="evenodd" d="M0.00679613 4.48107C1.81921e-10 4.9366 0 5.44065 0 6.00001V9.55556C0 12.384 0 13.7982 0.87868 14.6769C1.75736 15.5556 3.17157 15.5556 6 15.5556H14C16.8284 15.5556 18.2426 15.5556 19.1213 14.6769C20 13.7982 20 12.384 20 9.55555V6C20 5.44064 20 4.9366 19.9932 4.48107L10.9713 9.49324C10.3672 9.82882 9.63276 9.82882 9.02871 9.49324L0.00679613 4.48107ZM0.16885 2.34741C0.277126 2.36596 0.384168 2.4028 0.485643 2.45918L10 7.74493L19.5144 2.45918C19.6158 2.4028 19.7229 2.36596 19.8312 2.34742C19.7074 1.71773 19.4929 1.25031 19.1213 0.87868C18.2426 0 16.8284 0 14 0H6C3.17157 0 1.75736 0 0.87868 0.87868C0.507054 1.25031 0.292602 1.71773 0.16885 2.34741Z" fill="white"/>
</svg>
