<svg width="20" height="20" viewBox="0 0 20 20" fill="none" xmlns="http://www.w3.org/2000/svg">
<path d="M19.6905 18.1961L15.0599 13.576C16.2158 12.106 16.8424 10.2893 16.8385 8.41924C16.8385 6.75407 16.3447 5.1263 15.4196 3.74176C14.4945 2.35723 13.1796 1.27811 11.6411 0.64088C10.1027 0.0036479 8.4099 -0.163081 6.77673 0.161777C5.14356 0.486635 3.64339 1.28849 2.46594 2.46594C1.28849 3.64339 0.486635 5.14356 0.161777 6.77673C-0.163081 8.4099 0.0036479 10.1027 0.64088 11.6411C1.27811 13.1796 2.35723 14.4945 3.74176 15.4196C5.1263 16.3447 6.75407 16.8385 8.41924 16.8385C10.2893 16.8424 12.106 16.2158 13.576 15.0599L18.1961 19.6905C18.3943 19.8887 18.663 20 18.9433 20C19.2235 20 19.4923 19.8887 19.6905 19.6905C19.8887 19.4923 20 19.2235 20 18.9433C20 18.663 19.8887 18.3943 19.6905 18.1961V18.1961ZM3.95705 12.9341C2.91185 11.912 2.25366 10.5589 2.09478 9.10571C1.93589 7.6525 2.28615 6.18918 3.0858 4.9654C3.88545 3.74163 5.08494 2.83322 6.47964 2.39516C7.87433 1.9571 9.37781 2.01653 10.7336 2.56331C12.0893 3.11009 13.2134 4.11035 13.9139 5.39343C14.6145 6.67651 14.8482 8.16291 14.5751 9.59904C14.302 11.0352 13.539 12.3321 12.4164 13.2684C11.2938 14.2048 9.88107 14.7227 8.41924 14.7337C6.74512 14.7322 5.14009 14.066 3.95705 12.8814V12.9341ZM11.8396 8.41924C11.8396 8.69836 11.7287 8.96604 11.5313 9.1634C11.334 9.36077 11.0663 9.47165 10.7872 9.47165H9.47165V10.7872C9.47165 11.0663 9.36077 11.334 9.1634 11.5313C8.96604 11.7287 8.69836 11.8396 8.41924 11.8396C8.14013 11.8396 7.87244 11.7287 7.67508 11.5313C7.47772 11.334 7.36684 11.0663 7.36684 10.7872V9.47165H6.05133C5.77222 9.47165 5.50453 9.36077 5.30717 9.1634C5.1098 8.96604 4.99893 8.69836 4.99893 8.41924C4.99893 8.14013 5.1098 7.87244 5.30717 7.67508C5.50453 7.47772 5.77222 7.36684 6.05133 7.36684H7.36684V6.05133C7.36684 5.77222 7.47772 5.50453 7.67508 5.30717C7.87244 5.1098 8.14013 4.99893 8.41924 4.99893C8.69836 4.99893 8.96604 5.1098 9.1634 5.30717C9.36077 5.50453 9.47165 5.77222 9.47165 6.05133V7.36684H10.7872C11.0663 7.36684 11.334 7.47772 11.5313 7.67508C11.7287 7.87244 11.8396 8.14013 11.8396 8.41924Z" fill="white"/>
</svg>
