<svg width="43" height="40" viewBox="0 0 43 40" fill="none" xmlns="http://www.w3.org/2000/svg">
<g clip-path="url(#clip0_4_45)">
<path d="M8.25141 2.611e-06H34.7471C35.7014 -0.000806745 36.6465 0.186554 37.5283 0.551366C38.4101 0.916178 39.2113 1.45128 39.886 2.12605C40.5608 2.80083 41.0959 3.60203 41.4607 4.48382C41.8255 5.36561 42.0129 6.31068 42.0121 7.26496V32.735C42.0129 33.6893 41.8255 34.6344 41.4607 35.5162C41.0959 36.398 40.5608 37.1992 39.886 37.8739C39.2113 38.5487 38.4101 39.0838 37.5283 39.4486C36.6465 39.8134 35.7014 40.0008 34.7471 40H8.25141C7.29713 40.0008 6.35206 39.8134 5.47027 39.4486C4.58848 39.0838 3.78728 38.5487 3.1125 37.8739C2.43773 37.1992 1.90263 36.398 1.53782 35.5162C1.173 34.6344 0.985643 33.6893 0.986453 32.735V7.26496C0.985643 6.31068 1.173 5.36561 1.53782 4.48382C1.90263 3.60203 2.43773 2.80083 3.1125 2.12605C3.78728 1.45128 4.58848 0.916178 5.47027 0.551366C6.35206 0.186554 7.29713 -0.000806745 8.25141 2.611e-06Z" fill="#00005B"/>
<path d="M10.73 28.0513V10.4615C10.73 10.3419 10.7813 10.2735 10.901 10.2735C11.1916 10.2735 11.4651 10.2735 11.8582 10.2564C12.2685 10.2393 12.6959 10.2393 13.1574 10.2222C13.6189 10.2051 14.1147 10.2051 14.6446 10.188C15.1745 10.1709 15.6873 10.1709 16.2001 10.1709C17.6018 10.1709 18.7642 10.3419 19.7215 10.7009C20.5796 10.9923 21.3621 11.4711 22.0121 12.1026C22.5629 12.6552 22.9885 13.3198 23.26 14.0513C23.5187 14.7637 23.6518 15.5156 23.6531 16.2735C23.6531 17.7436 23.3112 18.9573 22.6275 19.9145C21.9405 20.8705 20.9815 21.5972 19.8753 22C18.7129 22.4274 17.4309 22.5812 16.0292 22.5812C15.6189 22.5812 15.3454 22.5812 15.1745 22.5641C15.0035 22.547 14.7642 22.547 14.4394 22.547V28.0342C14.4432 28.0623 14.4412 28.0909 14.4337 28.1182C14.4262 28.1456 14.4134 28.1712 14.3958 28.1935C14.3783 28.2158 14.3565 28.2343 14.3317 28.2481C14.3069 28.2618 14.2796 28.2705 14.2514 28.2735H10.9352C10.7984 28.2735 10.73 28.2051 10.73 28.0513ZM14.4565 13.5727V19.3162C14.6959 19.3333 14.9181 19.3504 15.1232 19.3504H16.0292C16.6965 19.3512 17.3598 19.2474 17.995 19.0427C18.5399 18.8825 19.0268 18.5678 19.3967 18.1368C19.7557 17.7094 19.9266 17.1282 19.9266 16.3761C19.9427 15.8419 19.8063 15.3142 19.5335 14.8547C19.2484 14.4109 18.8293 14.0695 18.3369 13.8803C17.6951 13.629 17.0085 13.5126 16.3198 13.5385C15.8753 13.5385 15.4822 13.5385 15.1574 13.5556C14.9237 13.5403 14.6892 13.546 14.4565 13.5727ZM26.0463 14.5641H29.0377C29.1187 14.5661 29.197 14.5936 29.2615 14.6427C29.326 14.6918 29.3733 14.76 29.3967 14.8376C29.4489 14.9751 29.4833 15.1187 29.4993 15.265C29.5335 15.4359 29.5676 15.6239 29.5847 15.7949C29.6018 15.9829 29.6189 16.188 29.6189 16.4103C30.1322 15.8111 30.7524 15.3126 31.448 14.9402C32.2426 14.4987 33.1373 14.2692 34.0463 14.2735C34.0744 14.2698 34.103 14.2717 34.1303 14.2792C34.1577 14.2867 34.1833 14.2996 34.2056 14.3171C34.2278 14.3346 34.2464 14.3564 34.2602 14.3812C34.2739 14.406 34.2826 14.4333 34.2856 14.4615V17.8633C34.2856 18 34.2001 18.0513 34.0121 18.0513C33.392 18.031 32.7718 18.0884 32.1659 18.2222C31.6721 18.3242 31.1908 18.4789 30.73 18.6838C30.3993 18.8329 30.1026 19.0481 29.8582 19.3162V28.0342C29.8582 28.2051 29.7899 28.2735 29.636 28.2735H26.2685C26.237 28.2787 26.2047 28.2775 26.1737 28.27C26.1426 28.2624 26.1135 28.2486 26.0879 28.2294C26.0623 28.2103 26.0409 28.1861 26.0249 28.1584C26.009 28.1307 25.9988 28.1001 25.995 28.0684V18.5299C25.995 18.1197 25.995 17.6923 25.9779 17.2479C25.9608 16.8034 25.9608 16.359 25.9437 15.9145C25.9437 15.5214 25.9095 15.1453 25.8753 14.7521C25.8708 14.7319 25.8703 14.711 25.8739 14.6906C25.8775 14.6703 25.8851 14.6508 25.8962 14.6333C25.9073 14.6158 25.9217 14.6007 25.9387 14.5889C25.9557 14.577 25.9748 14.5686 25.995 14.5641C25.995 14.547 26.0292 14.547 26.0463 14.5641Z" fill="#9999FF"/>
</g>
<defs>
<clipPath id="clip0_4_45">
<rect width="41.0256" height="40" fill="white" transform="translate(0.98645)"/>
</clipPath>
</defs>
</svg>
