<svg width="41" height="40" viewBox="0 0 41 40" fill="none" xmlns="http://www.w3.org/2000/svg">
<path d="M39.424 18.2183L21.958 0.754446C21.7188 0.51526 21.4349 0.325524 21.1224 0.196076C20.8099 0.0666268 20.475 0 20.1368 0C19.7985 0 19.4636 0.0666268 19.1511 0.196076C18.8386 0.325524 18.5547 0.51526 18.3156 0.754446L14.6889 4.38142L19.2892 8.98167C20.3587 8.62073 21.5844 8.86264 22.4365 9.71514C22.8426 10.1216 23.1261 10.6341 23.2546 11.1941C23.3832 11.7541 23.3515 12.3389 23.1633 12.8818L27.5972 17.3156C28.6698 16.9459 29.9075 17.1847 30.7642 18.0428C31.0489 18.3273 31.2748 18.6652 31.4289 19.037C31.583 19.4089 31.6623 19.8075 31.6623 20.21C31.6623 20.6125 31.583 21.0111 31.4289 21.383C31.2748 21.7549 31.0489 22.0927 30.7642 22.3772C30.2633 22.879 29.6041 23.1916 28.8987 23.2619C28.1932 23.3322 27.4852 23.1557 26.8953 22.7627C26.3053 22.3696 25.8698 21.7842 25.663 21.1061C25.4561 20.428 25.4907 19.6992 25.7609 19.0438L21.6262 14.9088V25.79C21.9258 25.9381 22.1995 26.1337 22.4365 26.3694C23.6338 27.5667 23.6338 29.5062 22.4365 30.7052C21.2393 31.9022 19.2983 31.9022 18.1021 30.7052C16.9048 29.5062 16.9048 27.5667 18.1021 26.3697C18.3891 26.0825 18.7303 25.8552 19.1059 25.7008V14.7188C18.7297 14.5656 18.3881 14.3381 18.1017 14.0499C17.6716 13.6199 17.3791 13.0717 17.2616 12.4749C17.144 11.8782 17.2067 11.26 17.4416 10.699L12.9063 6.16295L0.931721 18.1376C0.448576 18.6208 0.177155 19.2762 0.177155 19.9595C0.177155 20.6428 0.448576 21.2982 0.931721 21.7814L18.3967 39.2456C18.8798 39.7287 19.535 40 20.2182 40C20.9014 40 21.5566 39.7287 22.0398 39.2456L39.424 21.8639C39.907 21.3806 40.1784 20.7252 40.1784 20.0418C40.1784 19.3585 39.907 18.7031 39.424 18.2197" fill="#F05133"/>
</svg>
