<svg width="11" height="16" viewBox="0 0 11 16" fill="none" xmlns="http://www.w3.org/2000/svg">
<path fill-rule="evenodd" clip-rule="evenodd" d="M8.60385 0.0224474C9.52114 0.0909024 9.97978 0.12513 10.0825 0.446327C10.1852 0.767525 9.75306 1.12685 8.88868 1.84551C7.12369 3.31296 6 5.52525 6 8C6 10.4747 7.12369 12.687 8.88868 14.1545C9.75306 14.8731 10.1852 15.2325 10.0825 15.5537C9.97978 15.8749 9.52114 15.9091 8.60385 15.9776C8.40451 15.9924 8.20314 16 8 16C3.58172 16 0 12.4183 0 8C0 3.58172 3.58172 0 8 0C8.20314 0 8.40451 0.0075714 8.60385 0.0224474Z" fill="white"/>
</svg>
