<svg width="16" height="15" viewBox="0 0 16 15" fill="none" xmlns="http://www.w3.org/2000/svg">
<path d="M8 10L7.64645 10.3536L8 10.7071L8.35355 10.3536L8 10ZM8.5 2.5C8.5 2.22386 8.27614 2 8 2C7.72386 2 7.5 2.22386 7.5 2.5L8.5 2.5ZM3.89645 6.60355L7.64645 10.3536L8.35355 9.64645L4.60355 5.89645L3.89645 6.60355ZM8.35355 10.3536L12.1036 6.60355L11.3964 5.89645L7.64645 9.64645L8.35355 10.3536ZM8.5 10L8.5 2.5L7.5 2.5L7.5 10L8.5 10Z" fill="white"/>
<path d="M3.625 13.125H12.375" stroke="white"/>
</svg>
